<svg width="34" height="31" viewBox="0 0 34 31" fill="none" xmlns="http://www.w3.org/2000/svg">
<path opacity="0.5" d="M31.4241 14.656C30.0749 20.7225 23.5539 25.3387 15.7309 25.3387C14.6217 25.3387 13.5147 25.2388 12.4229 25.0491C15.1052 27.3716 19.2581 28.5431 23.5497 27.9084L29.2939 30.7445C29.3917 30.7924 29.4978 30.8163 29.6039 30.8163C29.7309 30.8163 29.8571 30.7821 29.9688 30.7143C30.1727 30.5897 30.2976 30.3692 30.2976 30.1316V24.9081C32.0893 23.3031 33.0722 21.2791 33.0722 19.1764C33.0722 17.5687 32.4916 16.0158 31.4241 14.656Z" fill="#34619F"/>
<path d="M15.5651 0.291199C7.39644 0.291199 0.751465 5.51623 0.751465 11.9389C0.751465 14.4076 1.72564 16.7611 3.57311 18.7631V25.6421C3.57311 25.8799 3.70009 26.0998 3.90748 26.2252C4.02105 26.293 4.14943 26.3273 4.27852 26.3273C4.38645 26.3273 4.49438 26.3033 4.59384 26.2554L11.1753 23.0591C12.6108 23.4092 14.0859 23.5867 15.5651 23.5867C23.7338 23.5867 30.3788 18.3616 30.3788 11.9389C30.3788 5.51623 23.7338 0.291199 15.5651 0.291199Z" fill="#34619F"/>
</svg>
