<svg width="109" height="57" viewBox="0 0 109 57" fill="none" xmlns="http://www.w3.org/2000/svg">
<path opacity="0.9" d="M0.803034 22L1.45959 18.8486L12.2927 5.06096H4.41407L5.26759 0.662067H19.4491L18.7926 3.81352L8.09076 17.6011H16.7572L15.8381 22H0.803034ZM27.8773 22.3939C26.236 22.3939 24.7915 22.0438 23.5441 21.3434C22.3185 20.6212 21.3556 19.5926 20.6553 18.2577C19.9549 16.9008 19.6048 15.2594 19.6048 13.3335C19.6048 11.342 19.9112 9.5474 20.524 7.94979C21.1367 6.35218 21.9574 4.98437 22.986 3.84634C24.0365 2.68644 25.2183 1.80009 26.5314 1.18731C27.8664 0.574527 29.2342 0.268135 30.6348 0.268135C32.2762 0.268135 33.7206 0.629239 34.9681 1.35145C36.2155 2.05177 37.1785 3.08037 37.8569 4.43724C38.5572 5.77223 38.9074 7.40267 38.9074 9.32855C38.9074 11.3201 38.601 13.1147 37.9882 14.7123C37.3754 16.3099 36.5438 17.6886 35.4933 18.8486C34.4647 19.9866 33.2939 20.862 31.9808 21.4748C30.6677 22.0875 29.2999 22.3939 27.8773 22.3939ZM28.14 17.8637C28.9497 17.8637 29.7704 17.5245 30.602 16.8461C31.4337 16.1457 32.123 15.1828 32.6702 13.9572C33.2392 12.7317 33.5237 11.2982 33.5237 9.65683C33.5237 8.10299 33.2392 6.91025 32.6702 6.07862C32.123 5.2251 31.3571 4.79834 30.3722 4.79834C29.5625 4.79834 28.7418 5.1485 27.9102 5.84883C27.0785 6.52726 26.3782 7.47926 25.8092 8.70483C25.2621 9.93039 24.9885 11.3639 24.9885 13.0052C24.9885 14.5372 25.2621 15.7299 25.8092 16.5834C26.3782 17.437 27.1551 17.8637 28.14 17.8637ZM40.6119 22L44.8795 0.662067H49.9349L52.8894 10.773L53.9399 15.5658H54.0712C54.1806 14.4059 54.2791 13.0928 54.3666 11.6265C54.4761 10.1383 54.6621 8.75954 54.9247 7.49021L56.3035 0.662067H61.2933L57.0257 22H51.9702L49.0157 11.8891L48.0309 7.09627H47.8996C47.8121 8.29995 47.7026 9.61306 47.5713 11.0356C47.44 12.4581 47.243 13.815 46.9804 15.1062L45.6017 22H40.6119ZM65.6706 22L67.1478 14.5153L63.7666 0.662067H69.216L69.9054 5.38924C70.0367 6.19899 70.157 6.97591 70.2665 7.72C70.3759 8.46409 70.4963 9.2629 70.6276 10.1164H70.7589C71.1966 9.2629 71.6015 8.45315 71.9735 7.68717C72.3674 6.92119 72.7942 6.13333 73.2538 5.32359L75.8143 0.662067H81.4607L72.4003 14.5153L70.8902 22H65.6706ZM77.3349 22L85.1479 11.0356L81.9308 0.662067H87.7741L88.562 4.40441C88.6714 4.88588 88.7808 5.42207 88.8902 6.01296C88.9997 6.58198 89.131 7.2057 89.2842 7.88414H89.4155C89.7875 7.2057 90.1377 6.58198 90.466 6.01296C90.7942 5.42207 91.1006 4.88588 91.3851 4.40441L93.4861 0.662067H99.0668L91.6477 11.2326L95.1275 22H89.2842L88.365 17.8637C88.2337 17.2947 88.1024 16.7366 87.9711 16.1895C87.8397 15.6205 87.7084 15.0187 87.5771 14.384H87.4458C87.0957 15.0187 86.7455 15.6205 86.3953 16.1895C86.0671 16.7366 85.7388 17.2947 85.4105 17.8637L82.9156 22H77.3349ZM8.87862 56.3939C7.52175 56.3939 6.15393 56.0875 4.77517 55.4748C3.4183 54.8401 2.18179 53.7787 1.06566 52.2905L4.808 49.336C5.37701 50.102 6.05545 50.7257 6.84331 51.2072C7.65306 51.6886 8.4628 51.9294 9.27255 51.9294C10.0385 51.9294 10.6404 51.7652 11.0781 51.437C11.5377 51.1087 11.7674 50.6491 11.7674 50.0582C11.7674 49.5767 11.5486 49.1937 11.1109 48.9092C10.6732 48.6029 10.0823 48.2199 9.33821 47.7603L7.49986 46.6113C6.51504 45.9766 5.73812 45.2435 5.1691 44.4119C4.62198 43.5802 4.34841 42.4969 4.34841 41.1619C4.34841 39.8707 4.69857 38.7108 5.3989 37.6822C6.09922 36.6317 7.04028 35.8001 8.22207 35.1873C9.42575 34.5745 10.7498 34.2681 12.1942 34.2681C13.4417 34.2681 14.6344 34.5636 15.7724 35.1545C16.9323 35.7454 17.95 36.5551 18.8254 37.5837L15.5426 40.6695C14.9955 40.1224 14.4374 39.6737 13.8684 39.3236C13.3213 38.9734 12.6976 38.7983 11.9972 38.7983C11.2532 38.7983 10.6841 38.9844 10.2902 39.3564C9.91816 39.7066 9.73214 40.1333 9.73214 40.6367C9.73214 41.0744 9.95099 41.4464 10.3887 41.7528C10.8483 42.0373 11.5048 42.4531 12.3583 43.0003L14.328 44.2149C15.3566 44.8277 16.0897 45.5171 16.5274 46.283C16.987 47.049 17.2168 48.0557 17.2168 49.3032C17.2168 50.5944 16.8776 51.7871 16.1992 52.8814C15.5207 53.9537 14.5578 54.8073 13.3103 55.4419C12.0629 56.0766 10.5857 56.3939 8.87862 56.3939ZM22.3318 56L25.6802 39.061H20.2965L21.15 34.6621H37.1698L36.3163 39.061H30.9326L27.5842 56H22.3318ZM45.772 56.3939C43.1239 56.3939 41.1323 55.7702 39.7973 54.5228C38.4842 53.2753 37.8277 51.3385 37.8277 48.7123C37.8277 48.2089 37.8824 47.618 37.9918 46.9396C38.1012 46.2611 38.1997 45.6484 38.2873 45.1012L40.3882 34.6621H45.6406L43.3427 46.1517C43.2771 46.5675 43.2114 46.9834 43.1457 47.3992C43.102 47.7931 43.0801 48.187 43.0801 48.581C43.0801 49.6533 43.2771 50.474 43.671 51.043C44.0868 51.5902 44.8309 51.8637 45.9033 51.8637C46.8662 51.8637 47.6322 51.4698 48.2012 50.6819C48.7702 49.8941 49.2298 48.581 49.58 46.7426L52.0092 34.6621H57.1303L54.7011 46.6113C54.0445 49.9597 52.994 52.4327 51.5496 54.0303C50.1271 55.6061 48.2012 56.3939 45.772 56.3939ZM57.7309 56L61.9985 34.6621H66.9883C69.9866 34.6621 72.3283 35.3405 74.0134 36.6974C75.7205 38.0543 76.574 40.1771 76.574 43.0659C76.574 45.9548 76.0487 48.3621 74.9983 50.288C73.9697 52.192 72.5581 53.6255 70.7635 54.5884C68.9908 55.5295 66.9883 56 64.756 56H57.7309ZM63.8369 51.7981H64.6247C65.8065 51.7981 66.8898 51.5245 67.8747 50.9774C68.8814 50.4303 69.6802 49.5439 70.2711 48.3183C70.8839 47.0928 71.1903 45.4514 71.1903 43.3942C71.1903 41.7091 70.7744 40.5382 69.9428 39.8817C69.1331 39.2032 68.1045 38.864 66.857 38.864H66.3974L63.8369 51.7981ZM78.2802 56L82.5478 34.6621H87.8002L83.5327 56H78.2802ZM97.7001 56.3939C96.0587 56.3939 94.6143 56.0438 93.3668 55.3434C92.1413 54.6212 91.1783 53.5926 90.478 52.2577C89.7777 50.9008 89.4275 49.2594 89.4275 47.3335C89.4275 45.342 89.7339 43.5474 90.3467 41.9498C90.9595 40.3522 91.7802 38.9844 92.8088 37.8463C93.8592 36.6864 95.041 35.8001 96.3541 35.1873C97.6891 34.5745 99.0569 34.2681 100.458 34.2681C102.099 34.2681 103.543 34.6292 104.791 35.3514C106.038 36.0518 107.001 37.0804 107.68 38.4372C108.38 39.7722 108.73 41.4027 108.73 43.3286C108.73 45.3201 108.424 47.1147 107.811 48.7123C107.198 50.3099 106.367 51.6886 105.316 52.8486C104.287 53.9866 103.117 54.862 101.804 55.4748C100.49 56.0875 99.1226 56.3939 97.7001 56.3939ZM97.9627 51.8637C98.7724 51.8637 99.5931 51.5245 100.425 50.8461C101.256 50.1457 101.946 49.1828 102.493 47.9572C103.062 46.7317 103.346 45.2982 103.346 43.6568C103.346 42.103 103.062 40.9103 102.493 40.0786C101.946 39.2251 101.18 38.7983 100.195 38.7983C99.3852 38.7983 98.5645 39.1485 97.7329 39.8488C96.9013 40.5273 96.2009 41.4793 95.6319 42.7048C95.0848 43.9304 94.8112 45.3639 94.8112 47.0052C94.8112 48.5372 95.0848 49.7299 95.6319 50.5834C96.2009 51.437 96.9779 51.8637 97.9627 51.8637Z" fill="white"/>
</svg>
