<svg width="33" height="35" viewBox="0 0 33 35" fill="none" xmlns="http://www.w3.org/2000/svg">
<path fill-rule="evenodd" clip-rule="evenodd" d="M7.93384 9.95425C7.93384 5.34355 11.3664 0.367065 16.9118 0.367065C22.4572 0.367065 25.8898 5.34355 25.8898 9.95425C25.8898 16.787 21.2295 21.0164 16.9118 21.0164C12.5942 21.0164 7.93384 16.787 7.93384 9.95425ZM9.46233 10.7315C9.78704 16.1917 13.4755 19.5414 16.9118 19.5414C20.3481 19.5414 24.0358 16.1925 24.362 10.7337C22.1362 10.4357 20.0563 9.49693 18.3872 8.02493C16.3252 9.84945 13.6954 10.8472 10.9048 10.8472C10.4282 10.8472 9.94789 10.8008 9.46233 10.7315Z" fill="#34619F"/>
<path opacity="0.5" d="M30.3586 24.7716L22.5792 20.1186C20.7559 21.6877 18.5765 22.5506 16.4629 22.5506C14.3493 22.5506 12.1699 21.6877 10.3467 20.1186L2.56726 24.7716C1.44726 25.4413 0.751465 26.6667 0.751465 27.9688V33.7375C0.751465 34.15 1.08664 34.4833 1.49963 34.4833H15.7147V27.0254C15.7147 26.613 16.0492 26.2796 16.4629 26.2796C16.8766 26.2796 17.2111 26.613 17.2111 27.0254V34.4833H31.4262C31.8392 34.4833 32.1744 34.15 32.1744 33.7375V27.9688C32.1744 26.6667 31.4786 25.4413 30.3586 24.7716Z" fill="#34619F"/>
</svg>
