<svg width="34" height="33" viewBox="0 0 34 33" fill="none" xmlns="http://www.w3.org/2000/svg">
<path d="M23.8608 9.69356C21.9619 7.8028 19.4813 6.85742 17.0007 6.85742V16.5536L10.1406 23.4137C13.9302 27.2033 20.0631 27.2033 23.8527 23.4137C27.6423 19.6241 27.6423 13.4832 23.8608 9.69356Z" fill="#34619F"/>
<path opacity="0.5" fill-rule="evenodd" clip-rule="evenodd" d="M0.840332 16.5538C0.840332 7.62519 8.07209 0.393433 17.0007 0.393433C25.9293 0.393433 33.161 7.62519 33.161 16.5538C33.161 25.4743 25.9293 32.7141 17.0007 32.7141C8.07209 32.7141 0.840332 25.4824 0.840332 16.5538ZM4.0724 16.5536C4.0724 23.6965 9.85781 29.4819 17.0007 29.4819C24.1435 29.4819 29.929 23.6965 29.929 16.5536C29.929 9.41076 24.1435 3.62536 17.0007 3.62536C9.85781 3.62536 4.0724 9.41076 4.0724 16.5536Z" fill="#34619F"/>
</svg>
